<svg xmlns="http://www.w3.org/2000/svg" width="20" height="20" viewBox="0 0 48 48"><g><path fill="#4285F4" d="M24 9.5c3.54 0 6.7 1.22 9.19 3.23l6.86-6.86C35.64 2.09 30.18 0 24 0 14.82 0 6.71 5.82 2.69 14.29l7.99 6.21C12.13 14.16 17.57 9.5 24 9.5z"/><path fill="#34A853" d="M46.1 24.55c0-1.64-.15-3.22-.43-4.74H24v9.01h12.42c-.54 2.9-2.18 5.36-4.65 7.01l7.19 5.59C43.98 37.13 46.1 31.36 46.1 24.55z"/><path fill="#FBBC05" d="M10.68 28.5a14.5 14.5 0 0 1 0-9.01l-7.99-6.21A23.94 23.94 0 0 0 0 24c0 3.77.9 7.34 2.69 10.5l7.99-6z"/><path fill="#EA4335" d="M24 48c6.18 0 11.36-2.05 15.15-5.59l-7.19-5.59c-2.01 1.35-4.6 2.16-7.96 2.16-6.43 0-11.87-4.66-13.32-10.79l-7.99 6C6.71 42.18 14.82 48 24 48z"/></g></svg> 